<svg width="48" height="48" viewBox="0 0 48 48" fill="none" xmlns="http://www.w3.org/2000/svg">
<path d="M4.8 48C3.48 48 2.3504 47.413 1.4112 46.239C0.4704 45.063 0 43.65 0 42V6C0 4.35 0.4704 2.938 1.4112 1.764C2.3504 0.587999 3.48 0 4.8 0H43.2C44.52 0 45.6504 0.587999 46.5912 1.764C47.5304 2.938 48 4.35 48 6V42C48 43.65 47.5304 45.063 46.5912 46.239C45.6504 47.413 44.52 48 43.2 48H4.8ZM24 26.475C24.2 26.475 24.4096 26.437 24.6288 26.361C24.8496 26.287 25.06 26.175 25.26 26.025L42.24 12.75C42.56 12.5 42.8 12.188 42.96 11.814C43.12 11.438 43.2 11.025 43.2 10.575C43.2 9.575 42.86 8.825 42.18 8.325C41.5 7.825 40.8 7.85 40.08 8.4L24 21L7.92 8.4C7.2 7.85 6.5 7.837 5.82 8.361C5.14 8.887 4.8 9.625 4.8 10.575C4.8 11.075 4.88 11.512 5.04 11.886C5.2 12.262 5.44 12.55 5.76 12.75L22.74 26.025C22.94 26.175 23.1504 26.287 23.3712 26.361C23.5904 26.437 23.8 26.475 24 26.475Z" fill="#B292FF"/>
</svg>
